<?xml version="1.0" standalone="no"?>
<!DOCTYPE svg PUBLIC "-//W3C//DTD SVG 20010904//EN"
 "http://www.w3.org/TR/2001/REC-SVG-20010904/DTD/svg10.dtd">
<svg version="1.0" xmlns="http://www.w3.org/2000/svg"
 width="225.000000pt" height="225.000000pt" viewBox="0 0 225.000000 225.000000"
 preserveAspectRatio="xMidYMid meet">
<metadata>
Created by potrace 1.14, written by Peter Selinger 2001-2017
</metadata>
<g transform="translate(0.000000,225.000000) scale(0.100000,-0.100000)"
fill="#000000" stroke="none">
<path d="M908 2231 c-213 -47 -365 -122 -525 -259 -158 -136 -296 -360 -349
-567 -94 -368 9 -768 269 -1041 140 -147 267 -233 436 -295 470 -171 987 -16
1290 386 73 97 155 269 187 390 32 124 43 321 24 446 -35 244 -146 459 -330
639 -147 145 -309 236 -517 291 -115 31 -365 36 -485 10z m410 -187 c308 -63
575 -291 686 -585 63 -169 76 -389 33 -559 -86 -336 -333 -587 -672 -683 -90
-25 -289 -34 -392 -17 -391 63 -698 368 -774 768 -19 101 -7 309 25 415 49
166 132 303 252 418 132 125 281 204 464 245 81 18 287 17 378 -2z"/>
<path d="M763 1762 l-173 -77 0 -458 c0 -434 1 -461 20 -518 39 -116 106 -190
209 -231 54 -22 71 -23 412 -26 l355 -3 46 168 45 168 -343 5 c-341 5 -344 5
-366 28 l-23 23 -5 499 -5 499 -172 -77z"/>
<path d="M992 1360 l3 -472 28 -24 c26 -22 37 -24 125 -24 90 1 95 2 66 14
-17 8 -34 21 -38 31 -3 9 -6 186 -6 392 l0 375 -81 87 c-45 47 -86 88 -91 89
-5 2 -7 -198 -6 -468z"/>
</g>
</svg>
