<svg width="30" height="25" viewBox="0 0 30 25" fill="none" xmlns="http://www.w3.org/2000/svg">
<path d="M30 3.12251C28.9286 3.5817 27.7041 3.88783 26.4796 4.04089C27.7041 3.27558 28.7755 2.0511 29.2347 0.673544C28.0102 1.43885 26.7857 1.89803 25.2551 2.20416C24.1837 0.979667 22.5 0.214355 20.8163 0.214355C17.449 0.214355 14.6939 2.96946 14.6939 6.33681C14.6939 6.79599 14.6939 7.25517 14.8469 7.71435C9.79592 7.40823 5.20407 4.95925 2.14285 1.28578C1.68366 2.20415 1.37754 3.27558 1.37754 4.34701C1.37754 6.48986 2.44898 8.32661 4.13265 9.39804C3.06122 9.39804 2.14285 9.09191 1.37754 8.63273C1.37754 11.5409 3.5204 14.1429 6.2755 14.6021C5.81631 14.7552 5.20408 14.7552 4.59184 14.7552C4.13265 14.7552 3.82653 14.7552 3.36734 14.6021C4.13265 17.0511 6.42857 18.8878 9.18368 18.8878C7.04082 20.5715 4.43878 21.4899 1.53061 21.4899C1.07143 21.4899 0.612245 21.4899 0 21.3368C2.7551 23.0205 5.96939 24.0919 9.48979 24.0919C20.8163 24.0919 26.9388 14.7552 26.9388 6.64293V5.87762C28.1633 5.41844 29.2347 4.347 30 3.12251Z" fill="#FF9825"/>
</svg>
